#tb 0: 1/25
0,          0,          0,        1,    90796, f90f29632eceac669132286385798866
0,          1,          1,        1,    90652, 62890a83da5b9226ff197a0508d0db21
0,          2,          2,        1,    91856, 815baaed2e42f9bf201f0b4630f265b9
0,          3,          3,        1,    90572, 5e94b63fea1cb60f32f66a23ea97ea4d
0,          4,          4,        1,    89580, ec8d444349c59dfbafd57095d0cab03a
0,          5,          5,        1,    91148, 51be2db33b11859938c3162b02d2b183
0,          6,          6,        1,    91212, 32df9c063904005a6c5a3a91b2e57b0d
0,          7,          7,        1,    90376, 9959a40ad11a0a7e6f98a3bb2e1842cd
0,          8,          8,        1,    90856, d03fa2bf67361ae27167ca61e0fa37da
0,          9,          9,        1,    91356, ea2b8edf132d0492d6241f655a291a0c
0,         10,         10,        1,    91032, 6204ddfa158037ee362920176597d85e
0,         11,         11,        1,    91004, d210d0cc04e423e59fac9aaaf9bf01bd
0,         12,         12,        1,    90096, 615dbf6c64f6165902a25970d226feb8
0,         13,         13,        1,    90832, 66858d96fdb0dc8d89f1902591ccc886
0,         14,         14,        1,    91688, 34a7ad1554020c4c78319803b41281d9
0,         15,         15,        1,    91796, fd7cb3faaab8ca700dd0854915f72bb0
0,         16,         16,        1,    90836, 983958df5d66c85194c2e2e7b27cf91b
0,         17,         17,        1,    90848, 09d8051c04533059768b75967509c752
0,         18,         18,        1,    90088, cf3fb73f2382063aa76bcdbe00739a9f
0,         19,         19,        1,    89892, e6c2ec30ea12db29eedd649aa9a62476
0,         20,         20,        1,    89304, 19603c655f5445bd4dadd4b88e482096
0,         21,         21,        1,    89560, 0e842bf72ce795b37dcd588874913d2b
0,         22,         22,        1,    89604, 83320a47a9882645aee67e8d343aee07
0,         23,         23,        1,    90684, c45b3a01ab736a363f4771a277d3bf37
0,         24,         24,        1,    91224, dbaf3f033273748bba13bc3332f399d5
0,         25,         25,        1,    90480, de5b49620f1242f24250721dab315f71
0,         26,         26,        1,    89988, a0d8ff14f468c5281c7bb80524743cbc
0,         27,         27,        1,    89636, 68ca298fa61d18c963c0b9610dfb48bf
0,         28,         28,        1,    88168, 22128400447fe0fcc9f067e1430e462e
0,         29,         29,        1,    88188, 0816840bbd1b2857e99973a69e65c26a
0,         30,         30,        1,    89068, bcf924eea0f45a9eeb01a886a154d969
0,         31,         31,        1,    90104, 1b19dd4e4ed22e56b707f63f559174c6
0,         32,         32,        1,    90344, 0142df8c6dfb99108622e8e7c8ebfd6d
0,         33,         33,        1,    91348, 031e49bf9dc9e2c9ac6a86ab5bdba307
0,         34,         34,        1,    90740, 5d4428cb9a61a57bfa724e0aea500db1
0,         35,         35,        1,    90204, ad8a5494a7145e13aa3eb811f0af5843
0,         36,         36,        1,    89708, 2421d07a9ed208f993d92c7d1f9c3fac
0,         37,         37,        1,    90036, c4edb940ea1f10b716100fde23a5cb08
0,         38,         38,        1,    89560, f6ba26af186ee1c7189603e6335281a8
0,         39,         39,        1,    89464, aa77758a59ab9a7a3952dd9456040a5d
0,         40,         40,        1,    88380, 78cd903ba608c770aeec39f13bd44896
0,         41,         41,        1,    89872, 21e9e482d36a30bbff9ad897a2bda3f4
0,         42,         42,        1,    89504, 9149a892a42e065079d614fba1e367c8
0,         43,         43,        1,    89408, b5ed6ff8f7682a71ca2ca2bca5b1dbc0
0,         44,         44,        1,    88916, 712d9669ad046b3993371cfb618c934e
0,         45,         45,        1,    87948, 47c9bfa99221085efffe30e7b335beaa
0,         46,         46,        1,    87284, 821cc4427f2649322950116caad44e96
0,         47,         47,        1,    87424, 0d072e86818957bc3c40ffeb090dbcd8
0,         48,         48,        1,    87296, 05bfe7d720b225ffc6b09a4ddf6ffa36
0,         49,         49,        1,    86416, 85df53da921ba046d8e1d07349819236
